# AST/ASF file generated using VICON BodyLanguage
# -----------------------------------------------
:version 1.10
:name VICON
:units
  mass 1.0
  length 0.45
  angle deg
:documentation
   .ast/.asf automatically generated from VICON data using
   VICON BodyBuilder and BodyLanguage model FoxedUp or BRILLIANT.MOD
:root
   order TX TY TZ RX RY RZ
   axis XYZ
   position 0 0 0  
   orientation 0 0 0 
:bonedata
  begin
     id 1 
     name lhipjoint
     direction 0.576517 -0.752066 0.319413 
     length 2.45433 
     axis 0 0 0  XYZ
  end
  begin
     id 2 
     name lfemur
     direction 0.34202 -0.939693 0  
     length 7.54459  
     axis 0 0 20  XYZ
    dof rx ry rz
    limits (-160.0 20.0)
           (-70.0 70.0)
           (-60.0 70.0)
  end
  begin
     id 3 
     name ltibia
     direction 0.34202 -0.939693 0   
     length 7.73986   
     axis 0 0 20   XYZ
    dof rx
    limits (-10.0 170.0)
  end
  begin
     id 4 
     name lfoot
     direction 0.090693 -0.249177 0.964202   
     length 2.28437   
     axis -90 7.62852e-016 20   XYZ
    dof rx rz
    limits (-45.0 90.0)
           (-70.0 20.0)
  end
  begin
     id 5 
     name ltoes
     direction 1.5356e-011 -4.21928e-011 1   
     length 1.14243   
     axis -90 7.62852e-016 20   XYZ
    dof rx
    limits (-90.0 20.0)
  end
  begin
     id 6 
     name rhipjoint
     direction -0.573937 -0.753736 0.320122   
     length 2.44889  
     axis 0 0 0  XYZ 
  end
  begin
     id 7 
     name rfemur
     direction -0.34202 -0.939693 0   
     length 7.50166   
     axis 0 0 -20   XYZ
    dof rx ry rz
    limits (-160.0 20.0)
           (-70.0 70.0)
           (-70.0 60.0)
  end
  begin
     id 8 
     name rtibia
     direction -0.34202 -0.939693 0   
     length 7.54266   
     axis 0 0 -20   XYZ
    dof rx
    limits (-10.0 170.0)
 end
 begin
     id 9 
     name rfoot
     direction -0.114017 -0.31326 0.942798   
     length 2.34212  
     axis -90 -7.62852e-016 -20   XYZ
    dof rx rz
    limits (-45.0 90.0)
           (-20.0 70.0)
  end
  begin
     id 10 
     name rtoes
     direction -1.53557e-011 -4.21867e-011 1   
     length 1.16246   
     axis -90 -7.62852e-016 -20   XYZ
    dof rx
    limits (-90.0 20.0)
  end
  begin
     id 11 
     name lowerback
     direction -0.0228371 0.999155 -0.034167   
     length 2.0537   
     axis 0 0 0   XYZ
    dof rx ry rz
    limits (-20.0 45.0)
           (-30.0 30.0)
           (-30.0 30.0)
  end
  begin
     id 12 
     name upperback
     direction 0.0198981 0.999794 0.00389455   
     length 2.05302   
     axis 0 0 0   XYZ
    dof rx ry rz
    limits (-20.0 45.0)
           (-30.0 30.0)
           (-30.0 30.0)
  end
  begin
     id 13 
     name thorax
     direction 0.0304566 0.99935 0.0192987   
     length 2.05315   
     axis 0 0 0   XYZ
    dof rx ry rz
    limits (-20.0 45.0)
           (-30.0 30.0)
           (-30.0 30.0)
  end
  begin
     id 14 
     name lowerneck
     direction -0.0196762 0.99417 0.106017   
     length 1.82056   
     axis 0 0 0   XYZ
    dof rx ry rz
    limits (-20.0 45.0)
           (-30.0 30.0)
           (-30.0 30.0)
  end
  begin
     id 15 
     name upperneck
     direction 0.00517787 0.9802 -0.197944   
     length 1.83835   
     axis 0 0 0   XYZ
    dof rx ry rz
    limits (-20.0 45.0)
           (-30.0 30.0)
           (-30.0 30.0)
  end
  begin
     id 16
     name head
     direction 0.00211419 0.996945 -0.078081  
     length 1.85629  
     axis 0 0 0   XYZ
    dof rx ry rz
    limits (-20.0 45.0)
           (-30.0 30.0)
           (-30.0 30.0)
  end
  begin
     id 17 
     name lclavicle
     direction 0.930001 0.365811 -0.0357824  
     length 3.81961  
     axis 0 0 0   XYZ
    dof ry rz
    limits (-20.0 10.0)
           (0.0 20.0)
  end
  begin
     id 18 
     name lhumerus
     direction 1 -4.48968e-011 -3.06644e-027   
     length 5.14507   
     axis 180 -30 -90   XYZ
    dof rx ry rz
    limits (-60.0 90.0)
           (-90.0 90.0)
           (-90.0 90.0)
  end
  begin
     id 19
     name lradius
     direction 1 -4.48965e-011 9.06925e-028   
     length 3.50646   
     axis 180 -30 -90   XYZ
    dof rx
    limits (-10.0 170.0)
  end
  begin
     id 20
     name lwrist
     direction 1 -4.48957e-011 1.03922e-027   
     length 1.75323   
     axis -2.56395e-016 90 90   XYZ
    dof ry
    limits (-180.0 0.0)
 end
  begin
     id 21 
     name lhand
     direction 1 -4.48967e-011 2.08017e-027   
     length 0.629969   
     axis -1.32723e-015 90 90   XYZ
    dof rx rz
    limits (-90.0 90.0)
           (-45.0 45.0)
  end
  begin
     id 22 
     name lfingers
     direction 1 -4.49089e-011 4.20095e-027   
     length 0.507897   
     axis -2.6545e-015 90 90   XYZ
    dof rx
    limits (0.0 90.0)
  end
  begin
     id 23
     name lthumb
     direction 0.707107 -6.35001e-011 0.707107   
     length 0.729241   
     axis -90 45 5.05613e-014   XYZ
    dof rx rz
    limits (-45.0 45.0)
           (-45.0 45.0)
  end
  begin
     id 24 
     name rclavicle
     direction -0.881882 0.464123 -0.0829113   
     length 3.47515  
     axis 0 0 0   XYZ 
    dof ry rz
    limits (-10.0 20.0)
           (-20.0 0.0)
  end
  begin
     id 25 
     name rhumerus
     direction -1 -4.48961e-011 -1.55672e-027  
     length 5.232   
     axis 180 30 90   XYZ
    dof rx ry rz
    limits (-90.0 60.0)
           (-90.0 90.0)
           (-90.0 90.0)
  end
  begin
     id 26 
     name rradius
     direction -1 -4.48963e-011 6.18178e-029   
     length 3.65641   
     axis 180 30 90   XYZ
    dof rx
    limits (-10.0 170.0)
  end
  begin
     id 27 
     name rwrist
     direction -1 -4.48982e-011 1.04136e-027   
     length 1.8282   
     axis -2.56395e-016 -90 -90   XYZ
    dof ry
    limits (-180.0 0.0)
  end
  begin
     id 28
     name rhand
     direction -1 -4.48929e-011 2.07378e-027   
     length 0.656807   
     axis -1.32723e-015 -90 -90   XYZ
    dof rx rz
    limits (-90.0 90.0)
           (-45.0 45.0)
  end
  begin
     id 29
     name rfingers
     direction -1 -4.489e-011 4.13816e-027   
     length 0.529535   
     axis -2.6545e-015 -90 -90   XYZ
    dof rx
    limits (0.0 90.0)
  end
  begin
     id 30
     name rthumb
     direction -0.707107 -6.34843e-011 0.707107   
     length 0.760309   
     axis -90 -45 -5.05613e-014   XYZ
    dof rx rz
    limits (-45.0 45.0)
           (-45.0 45.0)
  end
:hierarchy
  begin
    root lhipjoint rhipjoint lowerback
    lhipjoint lfemur
    lfemur ltibia
    ltibia lfoot
    lfoot ltoes
    rhipjoint rfemur
    rfemur rtibia
    rtibia rfoot
    rfoot rtoes
    lowerback upperback
    upperback thorax
    thorax lowerneck lclavicle rclavicle
    lowerneck upperneck
    upperneck head
    lclavicle lhumerus
    lhumerus lradius
    lradius lwrist
    lwrist lhand lthumb
    lhand lfingers
    rclavicle rhumerus
    rhumerus rradius
    rradius rwrist
    rwrist rhand rthumb
    rhand rfingers
  end

#!OML:ASF H:\ManfredETheater\Project 1\Capture day 1\Session 1\subject.ASF
:FULLY-SPECIFIED
:DEGREES
31
root 1.83636 14.7348 33.5315 -149.307 -12.2904 -179.219
lowerback 35.4118 -2.35052 7.03768
upperback 6.83076 -2.0937 2.58343
thorax -10.1251 -1.89865 0.0208509
lowerneck -12.9179 -1.35262 0.96285
upperneck -3.49189 -2.4448 -2.82898
head 1.02809 -1.52754 -1.17379
rclavicle 2.98177e-014 -4.67144e-015
rhumerus -38.8123 -0.0461094 -78.3604
rradius 103.166
rwrist -5.71889
rhand -21.7684 -2.16731
rfingers 7.12502
rthumb 4.63243 -32.0967
lclavicle 2.98177e-014 -4.67144e-015
lhumerus -21.6361 -10.6464 78.801
lradius 66.2207
lwrist -1.11787
lhand -29.7811 -7.92066
lfingers 7.12502
lthumb -3.10603 22.0365
rfemur -88.7757 -11.3329 22.7564
rtibia 70.7819
rfoot -13.4438 -5.88942
rtoes -39.4516
lfemur -42.6254 -2.57764 -11.8708
ltibia 74.4353
lfoot -28.3724 -18.6307
ltoes -2.46583
32
root 1.83533 14.7152 33.1508 -149.027 -12.6848 -179.126
lowerback 35.423 -2.49161 7.3625
upperback 6.97374 -2.18875 2.72192
thorax -9.96423 -1.9591 0.0348105
lowerneck -12.6569 -1.25385 1.28604
upperneck -3.38121 -2.33139 -3.28238
head 1.0171 -1.47392 -1.36671
rclavicle 2.10712e-014 -1.66979e-014
rhumerus -38.3503 0.342492 -78.3354
rradius 104.448
rwrist -5.57065
rhand -21.9394 -1.69204
rfingers 7.12502
rthumb 4.46725 -31.6249
lclavicle 2.10712e-014 -1.66979e-014
lhumerus -20.6791 -9.89653 78.5847
lradius 66.3816
lwrist -0.97219
lhand -30.0519 -7.95462
lfingers 7.12502
lthumb -3.36756 21.9985
rfemur -89.4246 -10.9071 21.8071
rtibia 68.6807
rfoot -11.7264 -4.50912
rtoes -39.9013
lfemur -40.8314 -3.14781 -11.2978
ltibia 73.0462
lfoot -28.3399 -18.6526
ltoes -2.97662
33
root 1.83584 14.7012 32.7621 -148.724 -13.1219 -179.021
lowerback 35.4672 -2.65088 7.73129
upperback 7.10909 -2.28859 2.85257
thorax -9.82424 -2.0224 0.0214205
lowerneck -12.4014 -1.15785 1.61181
upperneck -3.24964 -2.21904 -3.7501
head 1.01493 -1.42069 -1.56674
rclavicle -1.27222e-014 -1.54058e-014
rhumerus -37.7579 0.843751 -78.3728
rradius 105.666
rwrist -5.3771
rhand -22.0655 -1.10405
rfingers 7.12502
rthumb 4.34552 -31.0395
lclavicle -1.27222e-014 -1.54058e-014
lhumerus -19.6975 -9.10428 78.3946
lradius 66.5895
lwrist -0.866362
lhand -30.3225 -8.00908
lfingers 7.12502
lthumb -3.62893 21.9398
rfemur -89.9014 -10.5377 20.8415
rtibia 66.6977
rfoot -9.85244 -3.09641
rtoes -40.2162
lfemur -38.9622 -3.77249 -10.6999
ltibia 71.4336
lfoot -28.2185 -18.5927
ltoes -3.48761
34
root 1.83918 14.6463 32.3666 -148.404 -13.6187 -178.922
lowerback 35.564 -2.83377 8.14237
upperback 7.23666 -2.39866 2.97738
thorax -9.71241 -2.09135 -0.0127844
lowerneck -12.1539 -1.06981 1.92508
upperneck -3.1131 -2.11468 -4.21894
head 1.01668 -1.37158 -1.76726
rclavicle -1.23246e-014 2.97183e-014
rhumerus -37.0253 1.45082 -78.4626
rradius 106.811
rwrist -5.14775
rhand -22.1143 -0.459609
rfingers 7.12502
rthumb 4.29838 -30.396
lclavicle -1.23246e-014 2.97183e-014
lhumerus -18.6895 -8.28541 78.2349
lradius 66.8528
lwrist -0.798116
lhand -30.6106 -8.10754
lfingers 7.12502
lthumb -3.90711 21.8364
rfemur -90.4799 -10.2735 19.8938
rtibia 65.0679
rfoot -7.8413 -1.69744
rtoes -40.3548
lfemur -37.1114 -4.4421 -10.071
ltibia 69.7831
lfoot -28.0863 -18.427
ltoes -4.15567
35
root 1.84494 14.6447 31.9608 -148.057 -14.1764 -178.843
lowerback 35.7104 -3.03048 8.57441
upperback 7.35848 -2.51321 3.09893
thorax -9.62483 -2.16273 -0.0560517
lowerneck -11.9187 -0.997891 2.20733
upperneck -2.98588 -2.02882 -4.66772
head 1.01795 -1.33175 -1.95833
rclavicle -5.36719e-015 -2.89232e-014
rhumerus -36.1464 2.15578 -78.5901
rradius 107.885
rwrist -4.8954
rhand -22.0485 0.143677
rfingers 7.12502
rthumb 4.36191 -29.7914
lclavicle -5.36719e-015 -2.89232e-014
lhumerus -17.6417 -7.46738 78.1052
lradius 67.1683
lwrist -0.742358
lhand -30.9202 -8.26633
lfingers 7.12502
lthumb -4.20611 21.6719
rfemur -90.6367 -10.0656 18.9946
rtibia 63.5127
rfoot -5.99447 -0.417233
rtoes -40.1934
lfemur -35.132 -5.17569 -9.45976
ltibia 67.7336
lfoot -27.6544 -18.1592
ltoes -4.85116
36
root 1.85441 14.6507 31.5459 -147.668 -14.8134 -178.805
lowerback 35.8972 -3.24617 9.02665
upperback 7.47145 -2.63673 3.21834
thorax -9.56165 -2.2379 -0.104963
lowerneck -11.696 -0.948787 2.45072
upperneck -2.88107 -1.97121 -5.08118
head 1.01386 -1.30599 -2.13342
rclavicle -3.43897e-014 3.57812e-015
rhumerus -35.1214 2.94849 -78.7399
rradius 108.883
rwrist -4.61989
rhand -21.9104 0.687253
rfingers 7.12502
rthumb 4.49525 -29.245
lclavicle -3.43897e-014 3.57812e-015
lhumerus -16.548 -6.67455 78.0043
lradius 67.5333
lwrist -0.684851
lhand -31.2447 -8.45455
lfingers 7.12502
lthumb -4.51944 21.4772
rfemur -90.6585 -9.94672 18.1635
rtibia 62.2702
rfoot -4.37313 0.737028
rtoes -39.5137
lfemur -33.1475 -5.95441 -8.84915
ltibia 65.4804
lfoot -26.9958 -17.7997
ltoes -5.69514
37
root 1.86806 14.6646 31.1217 -147.223 -15.5355 -178.805
lowerback 36.103 -3.47489 9.50126
upperback 7.57661 -2.76105 3.33992
thorax -9.51311 -2.31258 -0.160022
lowerneck -11.4896 -0.92848 2.64424
upperneck -2.80571 -1.94983 -5.44157
head 1.00204 -1.29799 -2.28446
rclavicle 3.37934e-015 -1.22253e-014
rhumerus -33.9481 3.81199 -78.8982
rradius 109.798
rwrist -4.30825
rhand -21.7509 1.22109
rfingers 7.12502
rthumb 4.64932 -28.7079
lclavicle 3.37934e-015 -1.22253e-014
lhumerus -15.3956 -5.93749 77.9313
lradius 67.9374
lwrist -0.603928
lhand -31.56 -8.61214
lfingers 7.12502
lthumb -4.82385 21.3129
rfemur -90.5369 -9.90484 17.4318
rtibia 61.3046
rfoot -3.09195 1.61445
rtoes -38.4659
lfemur -31.1666 -6.7498 -8.22175
ltibia 62.9503
lfoot -25.9939 -17.392
ltoes -6.63274
38
root 1.88623 14.686 30.6882 -146.688 -16.3335 -178.868
lowerback 36.2861 -3.703 9.97391
upperback 7.67476 -2.87945 3.46154
thorax -9.46339 -2.38156 -0.216103
lowerneck -11.2883 -0.94455 2.78475
upperneck -2.76813 -1.97503 -5.7366
head 0.977037 -1.31235 -2.40628
rclavicle 5.34731e-014 1.90833e-014
rhumerus -32.6323 4.71625 -79.037
rradius 110.634
rwrist -3.95719
rhand -21.5749 1.68016
rfingers 7.12502
rthumb 4.81928 -28.245
lclavicle 5.34731e-014 1.90833e-014
lhumerus -14.1678 -5.29585 77.8856
lradius 68.361
lwrist -0.466868
lhand -31.8859 -8.74947
lfingers 7.12502
lthumb -5.13855 21.1682
rfemur -90.3385 -9.93284 16.7935
rtibia 60.7478
rfoot -2.33181 2.11309
rtoes -37.2659
lfemur -29.2501 -7.53923 -7.58719
ltibia 60.2306
lfoot -24.6582 -16.9764
ltoes -7.65501
39
root 1.90879 14.7147 30.2454 -146.062 -17.2056 -178.985
lowerback 36.4371 -3.92456 10.4552
upperback 7.76598 -2.98164 3.58603
thorax -9.40833 -2.4402 -0.280264
lowerneck -11.0914 -0.998363 2.87506
upperneck -2.76182 -2.0486 -5.96675
head 0.940444 -1.34976 -2.4991
rclavicle 5.22804e-014 -5.43676e-014
rhumerus -31.1818 5.64367 -79.144
rradius 111.38
rwrist -3.60006
rhand -21.4587 2.13231
rfingers 7.12502
rthumb 4.93143 -27.7903
lclavicle 5.22804e-014 -5.43676e-014
lhumerus -12.8514 -4.775 77.8652
lradius 68.7836
lwrist -0.277061
lhand -32.2182 -8.84617
lfingers 7.12502
lthumb -5.45939 21.0635
rfemur -90.0768 -10.0124 16.2915
rtibia 60.6183
rfoot -2.16534 2.26156
rtoes -35.985
lfemur -27.4145 -8.28692 -6.92554
ltibia 57.3393
lfoot -22.9561 -16.5754
ltoes -8.75975
40
root 1.93525 14.7506 29.7939 -145.334 -18.1387 -179.151
lowerback 36.5414 -4.13281 10.9457
upperback 7.84729 -3.05964 3.71232
thorax -9.34593 -2.4843 -0.358008
lowerneck -10.9078 -1.08771 2.91231
upperneck -2.77188 -2.16637 -6.13221
head 0.898755 -1.40809 -2.56224
rclavicle 2.68359e-014 -6.65929e-014
rhumerus -29.6104 6.57761 -79.2036
rradius 112.049
rwrist -3.20522
rhand -21.3902 2.54843
rfingers 7.12502
rthumb 4.99759 -27.3726
lclavicle 2.68359e-014 -6.65929e-014
lhumerus -11.4326 -4.3867 77.8653
lradius 69.1846
lwrist -0.0567562
lhand -32.5476 -8.86914
lfingers 7.12502
lthumb -5.77747 21.0321
rfemur -89.7849 -10.1264 15.9594
rtibia 60.9026
rfoot -2.62171 2.09242
rtoes -34.7032
lfemur -25.6868 -8.96153 -6.22928
ltibia 54.2999
lfoot -20.8386 -16.2199
ltoes -9.83268
41
root 1.96495 14.7921 29.3349 -144.479 -19.1115 -179.377
lowerback 36.5915 -4.3145 11.4266
upperback 7.90925 -3.10148 3.8434
thorax -9.28355 -2.50766 -0.441766
lowerneck -10.747 -1.21317 2.89163
upperneck -2.78014 -2.32755 -6.2382
head 0.859689 -1.48717 -2.59667
rclavicle -2.84262e-014 -2.31584e-014
rhumerus -27.9295 7.50241 -79.192
rradius 112.643
rwrist -2.81381
rhand -21.3476 2.93908
rfingers 7.12502
rthumb 5.0387 -26.981
lclavicle -2.84262e-014 -2.31584e-014
lhumerus -9.90429 -4.13892 77.8962
lradius 69.5371
lwrist 0.195677
lhand -32.8716 -8.85035
lfingers 7.12502
lthumb -6.09027 21.0421
rfemur -89.5179 -10.2673 15.8257
rtibia 61.5471
rfoot -3.62905 1.55275
rtoes -33.8773
lfemur -24.1055 -9.554 -5.50736
ltibia 51.1515
lfoot -18.2567 -15.9033
ltoes -10.811
